<svg xmlns="http://www.w3.org/2000/svg" version="1.1" baseProfile="full" 
width="26" height="26"
>
  <g>
    <path d="m12.61148,0.60751l0.76,2.97l0.76,-2.97l-1.52,0zm4.89,1.22l-1.43,-0.47l-0.4,3.03l1.83,-2.56zm-6.84,-0.47l-1.43,0.47l1.84,2.56l-0.41,-3.03zm12.68,12.55l-3.02,-5.3c-0.29,-0.43 -0.69,-0.7 -1.12,-0.78a1.16,1.16 0 0 0 -0.91,0.22c-0.3,0.23 -0.48,0.52 -0.54,0.84l0.05,0.07l2.85,5c1.95,3.56 1.32,6.97 -1.85,10.14a8.46,8.46 0 0 1 -0.55,0.5a5.75,5.75 0 0 0 3.36,-1.76c3.26,-3.27 3.04,-6.75 1.73,-8.91m-9.89,-3.43c-0.16,-0.83 0.1,-1.57 0.7,-2.15l-2.5,-2.49c-0.5,-0.5 -1.38,-0.5 -1.88,0c-0.18,0.18 -0.27,0.4 -0.33,0.63l4.01,4l0,0.01z" fill="#777" stroke="none" style="opacity: 0.5" />
    <path d="m16.68148,9.64751a1.37,1.37 0 0 0 -0.88,-0.6a0.81,0.81 0 0 0 -0.64,0.15c-0.18,0.13 -0.71,0.55 -0.24,1.56l1.43,3.03a0.54,0.54 0 1 1 -0.87,0.61l-7.41,-7.41a0.99,0.99 0 1 0 -1.4,1.4l4.4,4.4a0.54,0.54 0 1 1 -0.76,0.76l-4.4,-4.4l-1.24,-1.24a0.99,0.99 0 0 0 -1.4,0a0.98,0.98 0 0 0 0,1.39l1.25,1.24l4.4,4.4a0.54,0.54 0 0 1 0,0.76a0.54,0.54 0 0 1 -0.76,0l-4.4,-4.4a1,1 0 0 0 -1.4,0a0.98,0.98 0 0 0 0,1.4l1.86,1.85l2.76,2.77a0.54,0.54 0 0 1 -0.76,0.76l-2.77,-2.77a0.98,0.98 0 0 0 -1.4,0a0.99,0.99 0 0 0 0,1.4l5.33,5.32c3.37,3.37 6.64,4.98 10.49,1.12c2.74,-2.74 3.27,-5.54 1.62,-8.56l-2.8,-4.94l-0.01,0z" fill="#777" stroke="none" style="opacity: 0.5" />
  </g>
</svg>