<svg xmlns="http://www.w3.org/2000/svg" version="1.1" baseProfile="full" 
width="26" height="26"
>
  <path d="m12.44537,0.61l0.76,2.97l0.76,-2.97l-1.52,0zm3.07,3.78l1.84,-2.56l-1.42,-0.47l-0.42,3.03zm-6.43,-2.56l1.84,2.56l-0.42,-3.03l-1.42,0.47zm12,20.4a5.11,5.11 0 0 1 -3.16,1.61l0.49,-0.45c2.88,-2.89 3.45,-5.98 1.69,-9.21l-1.1,-1.94l-0.96,-2.02c-0.31,-0.67 -0.23,-1.18 0.25,-1.55a0.84,0.84 0 0 1 0.66,-0.16c0.34,0.05 0.66,0.28 0.88,0.6l2.85,5.02c1.18,1.97 1.38,5.12 -1.6,8.1m-13.28,-0.52l-5.02,-5.02a1,1 0 0 1 0.7,-1.7a1,1 0 0 1 0.72,0.3l2.6,2.6a0.44,0.44 0 0 0 0.63,-0.62l-2.63,-2.62001l-1.75,-1.75a1,1 0 1 1 1.41,-1.41l4.15,4.15a0.44,0.44 0 0 0 0.63,0a0.44,0.44 0 0 0 0,-0.62l-4.14,-4.15l-1.18,-1.18a1,1 0 0 1 0,-1.4a1.02,1.02 0 0 1 1.41,0l1.18,1.16l4.15,4.16a0.44,0.44 0 0 0 0.62,0a0.44,0.44 0 0 0 0,-0.63l-4.15,-4.15a0.99,0.99 0 0 1 -0.3,-0.7a0.99,0.99 0 0 1 0.3,-0.7a1,1 0 0 1 1.41,0l7,6.98a0.44,0.44 0 0 0 0.7,-0.5l-1.35,-2.85c-0.31,-0.68 -0.23,-1.19 0.25,-1.56a0.85,0.85 0 0 1 0.66,-0.16c0.34,0.06 0.66,0.28 0.88,0.6l2.65,4.67c1.57,2.88 1.07,5.54001 -1.55,8.16a5.62,5.62 0 0 1 -5.06,1.65a9.35,9.35 0 0 1 -4.93,-2.72l0.01,0.01zm3.9,-15.12l2.56,2.56c-0.5,0.6 -0.56,1.41 -0.15,2.28l0.26,0.56l-4.25,-4.25a0.98,0.98 0 0 1 -0.12,-0.45a1,1 0 0 1 0.29,-0.7a1.02,1.02 0 0 1 1.41,0zm8.89,2.06c-0.38,-0.56 -0.9,-0.92 -1.49,-1.01a1.74,1.74 0 0 0 -1.34,0.33c-0.38,0.29 -0.61,0.65 -0.71,1.06a2.1,2.1 0 0 0 -1.1,-0.56a1.78,1.78 0 0 0 -0.99,0.13l-2.64,-2.64a1.88,1.88 0 0 0 -2.65,0a1.86,1.86 0 0 0 -0.48,0.85a1.89,1.89 0 0 0 -2.67,-0.01a1.87,1.87 0 0 0 -0.5,0.9c-0.76,-0.75 -2,-0.75 -2.7,-0.04a1.88,1.88 0 0 0 0,2.66c-0.3,0.12 -0.61,0.29 -0.87,0.55a1.88,1.88 0 0 0 0,2.66l0.62,0.62a1.88,1.88 0 0 0 -0.9,3.16l5.01,5.02c1.6,1.6 3.52,2.64 5.4,2.96a7.16,7.16 0 0 0 1.18,0.1c1.03,0 2,-0.25 2.9,-0.7a5.9,5.9 0 0 0 5.04,-1.84c3.34,-3.34 3.08,-6.93 1.74,-9.17l-2.87,-5.04l0.02,0.01z" fill="#777" stroke="none" style="opacity: 0.5" />
</svg>