<svg xmlns="http://www.w3.org/2000/svg" version="1.1" baseProfile="full" 
width="26" height="26"
>
  <path d="m15.49476,24.994c-3.459,-0.175 -5.569,-2.172 -7.253,-5.003c-3.912,-6.581 -6.713,-9.594 -5.625,-10.688c1.109,-1.116 3.822,1.303 5.878,3.503l0,-10.291c0,-0.844 0.672,-1.509 1.5,-1.509c0.834,0 1.5,0.675 1.5,1.509l0,9.491l1,0l0,-4.509c0,-0.816 0.672,-1.491 1.5,-1.491c0.834,0 1.5,0.669 1.5,1.491l0,3.509l1,0l0,-2.509c0,-0.828 0.672,-1.491 1.5,-1.491c0.834,0 1.5,0.669 1.5,1.491l0,3.509l1,0l0,-2.494c0,-0.831 0.672,-1.506 1.5,-1.506c0.834,0 1.5,0.675 1.5,1.506l0,7.994c0,3.975 -3.091,7.225 -7,7.484l0,-9.034l3.25,3.25l0.75,-0.75l-4.5,-4.5l-4.5,4.5l0.75,0.75l3.25,-3.25l0,9.037l0,0.00101l0,-0.00001z" fill="#777" stroke="none" style="opacity: 0.5" />
</svg>