<?xml version="1.0" standalone="no"?><!DOCTYPE svg PUBLIC "-//W3C//DTD SVG 1.1//EN" "http://www.w3.org/Graphics/SVG/1.1/DTD/svg11.dtd"><svg t="1639796082974" class="icon" viewBox="0 0 1024 1024" version="1.1" xmlns="http://www.w3.org/2000/svg" p-id="2281" xmlns:xlink="http://www.w3.org/1999/xlink" width="200" height="200"><defs><style type="text/css"></style></defs><path d="M502.112 24.64c5.44-11.52 14.336-11.52 19.744 0l18.24 38.624c5.44 11.52 19.84 22.496 32 24.32l40.64 6.24c12.16 1.824 14.912 10.72 6.112 19.68l-29.44 30.048c-8.8 8.96-14.272 26.72-12.224 39.36l6.976 42.528c2.08 12.64-5.12 18.112-16 12.16l-36.384-20.064c-10.88-6.016-28.672-6.016-39.52 0l-36.448 20.032c-10.848 5.984-18.048 0.512-16-12.16l7.008-42.464c2.048-12.672-3.424-30.4-12.224-39.392l-29.44-30.048c-8.8-8.96-6.048-17.856 6.08-19.68l40.704-6.208c12.16-1.856 26.56-12.8 32-24.32L502.08 24.64z" fill="#d4237a" p-id="2282"></path><path d="M133.248 997.984c8.8 16.544 26.688 26.016 49.088 26.016h659.296c22.4 0 40.32-9.472 49.12-26.016 8.48-15.904 6.72-34.816-4.736-51.84l-169.664-252.608c12.48-4.16 22.176-12.096 27.744-23.168 8.128-16.192 5.568-35.136-7.008-51.968l-91.2-122.24a45.76 45.76 0 0 0 24.96-22.112c8.096-16.192 5.568-35.136-7.04-52l-105.824-141.824a57.376 57.376 0 0 0-91.936-0.032l-105.888 141.824c-12.576 16.832-15.136 35.776-7.04 51.968 5.12 10.176 13.664 17.728 25.024 22.08l-91.264 122.336c-12.544 16.832-15.104 35.776-6.976 51.968 5.504 10.976 15.04 18.88 27.808 23.04l-169.696 252.672c-11.488 17.056-13.248 35.968-4.768 51.904z m240-287.36c11.456-17.12 13.152-36.032 4.672-51.936a46.72 46.72 0 0 0-25.12-21.632l91.264-122.336c12.576-16.832 15.104-35.776 6.976-51.968a45.216 45.216 0 0 0-24.96-22.048L512 325.632l85.824 115.008a45.76 45.76 0 0 0-24.896 22.08c-8.128 16.192-5.6 35.168 7.008 52.064l91.2 122.208a47.136 47.136 0 0 0-25.088 21.696c-8.48 15.872-6.752 34.784 4.704 51.968L818.24 960l-612.384-0.096 167.456-249.28z" fill="#d4237a" p-id="2283"></path><path d="M630.24 124.704c8.64-8.768 11.744-19.328 8.544-28.928-3.2-9.504-11.808-16-23.648-17.792l-40.64-6.176c-6.912-1.056-16.768-8.64-19.936-15.36L536.32 17.856C528.8 1.728 516.8 0 512 0c-4.8 0-16.8 1.728-24.32 17.824l-18.24 38.656c-3.168 6.688-12.992 14.272-19.904 15.328l-40.704 6.176c-11.84 1.824-20.448 8.32-23.616 17.792-3.2 9.6-0.096 20.16 8.512 28.928l29.44 30.048c5.216 5.28 9.088 17.984 7.84 25.6l-6.944 42.464c-2.112 12.704 1.856 20.576 5.568 24.96 7.712 9.088 21.184 10.848 33.92 3.84l36.48-20.096c5.632-3.104 18.24-3.136 24 0.032l36.416 20.032c5.312 2.944 10.624 4.416 15.744 4.416a23.424 23.424 0 0 0 18.176-8.224c3.68-4.384 7.68-12.256 5.6-24.96l-6.976-42.432c-1.28-7.648 2.624-20.352 7.84-25.632l29.44-30.048z m-52.256 7.648c-12.352 12.576-19.456 35.424-16.576 53.184l5.28 32.96-27.168-14.944c-15.136-8.448-39.968-8.384-54.976 0l-27.392 15.232 5.44-33.28c2.88-17.728-4.224-40.576-16.576-53.152l-23.424-24.096 31.744-4.832c17.408-2.656 36.352-16.96 44.032-33.312l13.664-28.8 13.568 28.8c7.712 16.32 26.656 30.656 44.064 33.28l31.808 4.96-23.488 24z" fill="#d4237a" p-id="2284"></path></svg>